<?xml version="1.0" encoding="UTF-8"?>
<svg id="_レイヤー_2" data-name="レイヤー 2" xmlns="http://www.w3.org/2000/svg" viewBox="0 0 343.73 58.3">
  <defs>
    <style>
      .cls-1 {
        fill: #231815;
      }
    </style>
  </defs>
  <g id="_レイヤー_1-2" data-name="レイヤー 1">
    <g>
      <path class="cls-1" d="m49.05,58.3H4.92c-2.72,0-4.92-2.2-4.92-4.92V4.92C0,2.2,2.2,0,4.92,0s4.92,2.2,4.92,4.92v43.53h39.21c2.72,0,4.92,2.2,4.92,4.92s-2.2,4.92-4.92,4.92Z"/>
      <path class="cls-1" d="m49.05,41.13h-26.91c-2.72,0-4.92-2.2-4.92-4.92V4.92c0-2.72,2.2-4.92,4.92-4.92s4.92,2.2,4.92,4.92v26.36h21.98c2.72,0,4.92,2.2,4.92,4.92s-2.2,4.92-4.92,4.92Z"/>
      <g>
        <g>
          <path class="cls-1" d="m103.33,53.15h-29.99c-2.31,0-4.11-1.74-4.11-4V8.7c0-.96,1.01-2.03,2.48-2.03s2.48,1.07,2.48,2.03v38.27c0,.79.56,1.35,1.24,1.35h27.91c.96,0,2.03.96,2.03,2.48,0,1.41-1.07,2.36-2.03,2.36Z"/>
          <path class="cls-1" d="m103.33,55.07h-29.99c-3.38,0-6.02-2.6-6.02-5.91V8.7c0-2.14,2.01-3.94,4.39-3.94s4.39,1.8,4.39,3.94v37.7h27.24c1.89,0,3.94,1.68,3.94,4.39,0,2.56-2.04,4.28-3.94,4.28ZM71.14,8.81v40.35c0,1.19.94,2.08,2.19,2.08h29.91c.06-.04.19-.17.19-.45,0-.36-.14-.51-.2-.56h-27.82c-1.77,0-3.15-1.43-3.15-3.26V8.81c-.06-.07-.24-.22-.56-.22s-.5.14-.56.22Z"/>
        </g>
        <g>
          <path class="cls-1" d="m151.44,53.77c-1.52,0-2.25-.51-2.53-1.46l-4.05-10.07h-16.21c-.96,0-1.97-.84-1.97-2.36,0-1.41,1.01-2.36,1.97-2.36h14.29l-10.13-25.6c-.11-.34-.34-.51-.51-.51s-.34.17-.45.51l-16.09,40.52c-.34.9-1.07,1.35-2.48,1.35-1.69,0-2.48-.84-2.48-1.91,0-.23.06-.51.17-.79l16.26-41.25c.56-1.46,1.97-2.76,3.88-2.76h2.36c1.8,0,3.32,1.29,3.88,2.7l16.38,41.36c.11.23.17.45.17.68,0,1.07-1.01,1.97-2.48,1.97Z"/>
          <path class="cls-1" d="m151.44,55.69c-2.85,0-3.93-1.46-4.34-2.74l-3.54-8.8h-14.91c-1.91,0-3.88-1.6-3.88-4.28,0-2.36,1.74-4.28,3.88-4.28h11.48l-7.79-19.7-14.79,37.24c-.43,1.15-1.53,2.56-4.25,2.56-3.02,0-4.39-1.98-4.39-3.83,0-.48.11-1,.31-1.5l16.26-41.24c.92-2.4,3.15-3.97,5.66-3.97h2.36c2.41,0,4.74,1.61,5.66,3.9l16.35,41.3c.22.47.33.95.33,1.44,0,2.18-1.93,3.88-4.39,3.88Zm-.69-3.91c.08.03.29.08.69.08.24,0,.41-.05.5-.1l-16.35-41.29c-.29-.73-1.16-1.49-2.1-1.49h-2.36c-1.11,0-1.83.82-2.1,1.53l-16.27,41.26s0,.02,0,.02c.1.03.28.06.54.06.41,0,.6-.05.67-.08,0,0,0-.02.01-.03l16.09-40.51c.46-1.29,1.45-1.75,2.24-1.75,1.01,0,1.92.7,2.3,1.75l11.15,28.18h-17.01c-.05.05-.16.18-.16.45s.07.41.11.45h17.44l4.59,11.45s0,0,0,.01Z"/>
        </g>
        <g>
          <path class="cls-1" d="m199.44,9.49l-15.53,41.02c-.68,1.8-1.91,2.87-4.05,2.87h-.68c-2.08,0-3.43-.9-4.11-2.81l-15.19-41.19c-.06-.23-.11-.39-.11-.62,0-1.07.96-2.08,2.59-2.08,1.46,0,2.14.79,2.48,1.63l14.29,38.27c.11.28.28.45.39.45.17,0,.28-.17.39-.45l14.63-38.27c.34-.9,1.13-1.63,2.53-1.63,1.52,0,2.48,1.01,2.48,2.14,0,.23,0,.45-.11.68Z"/>
          <path class="cls-1" d="m179.86,55.29h-.68c-2.92,0-4.97-1.41-5.91-4.09l-15.22-41.26-.05-.19c-.06-.24-.15-.56-.15-.99,0-2.28,1.94-4,4.5-4,2.01,0,3.52,1.01,4.25,2.84l12.93,34.6,13.22-34.58c.67-1.79,2.29-2.86,4.32-2.86,2.46,0,4.39,1.78,4.39,4.05,0,.3,0,.83-.26,1.42l-15.51,40.96c-1.01,2.68-3.03,4.11-5.84,4.11Zm-18.15-46.49l15.16,41.1c.4,1.15,1.03,1.56,2.31,1.56h.68c1.2,0,1.81-.44,2.26-1.63l15.52-41v-.03c0-.07-.16-.22-.56-.22-.59,0-.68.23-.74.39l-14.64,38.28c-.59,1.47-1.62,1.68-2.18,1.68-.93,0-1.76-.63-2.17-1.65l-14.31-38.3c-.1-.26-.18-.39-.68-.39-.4,0-.59.11-.66.18,0,0,0,.01,0,.02v.02Z"/>
        </g>
        <g>
          <path class="cls-1" d="m227.86,53.32h-2.7c-12.89,0-18.57-5.8-18.57-18.51v-9.12c0-13,5.96-18.51,18.57-18.51h2.7c12.6,0,18.68,5.85,18.68,18.51v9.12c0,12.72-5.8,18.51-18.68,18.51Zm13.73-27.63c0-9.9-4.78-13.51-13.73-13.51h-2.7c-8.95,0-13.79,3.6-13.79,13.51v9.12c0,9.96,4.84,13.62,13.79,13.62h2.7c8.95,0,13.73-3.66,13.73-13.62v-9.12Z"/>
          <path class="cls-1" d="m227.86,55.24h-2.7c-7.02,0-12.08-1.65-15.47-5.05-3.37-3.38-5.01-8.41-5.01-15.38v-9.12c0-7.05,1.68-12.12,5.13-15.5,3.39-3.32,8.41-4.93,15.35-4.93h2.7c13.67,0,20.6,6.87,20.6,20.43v9.12c0,13.75-6.74,20.43-20.6,20.43Zm-2.7-46.14c-11.83,0-16.66,4.81-16.66,16.6v9.12c0,11.79,4.83,16.6,16.66,16.6h2.7c11.75,0,16.77-4.96,16.77-16.6v-9.12c0-11.48-5.17-16.6-16.77-16.6h-2.7Zm2.7,41.25h-2.7c-10.56,0-15.7-5.08-15.7-15.53v-9.12c0-10.38,5.14-15.42,15.7-15.42h2.7c10.53,0,15.64,5.04,15.64,15.42v9.12c0,10.45-5.12,15.53-15.64,15.53Zm-2.7-36.24c-8.43,0-11.87,3.36-11.87,11.59v9.12c0,8.31,3.44,11.7,11.87,11.7h2.7c8.39,0,11.82-3.39,11.82-11.7v-9.12c0-8.34-3.31-11.59-11.82-11.59h-2.7Z"/>
        </g>
        <g>
          <path class="cls-1" d="m279.86,33.51h-5.57c-.28,0-.39.06-.39.17s.11.28.34.45l18.46,15.76c.62.51.9,1.18.9,1.8,0,1.07-.9,2.08-2.48,2.08-.96,0-1.46-.39-2.08-.9l-20.76-18.4c-.73-.68-1.58-1.58-1.58-2.93,0-1.69,1.07-2.59,2.7-2.59h9.12c7.32,0,10.69-1.97,10.69-6.87v-1.91c0-6.53-3.6-8.05-9.29-8.05h-17.89c-.73,0-1.24.56-1.24,1.29v38.32c0,1.01-.96,2.03-2.53,2.03-1.46,0-2.36-1.01-2.36-2.03V11.29c0-2.76,1.41-4,4.11-4h19.92c9.74,0,14.18,3.43,14.18,12.77v2.48c0,8.05-5.63,10.97-14.24,10.97Z"/>
          <path class="cls-1" d="m291.11,55.69c-1.66,0-2.61-.77-3.29-1.33l-.06-.05-20.76-18.4c-.68-.63-2.22-2.05-2.22-4.36,0-2.69,1.85-4.5,4.61-4.5h9.12c8.1,0,8.78-2.45,8.78-4.95v-1.91c0-4.64-1.79-6.13-7.37-6.13h-17.22v37.7c0,1.94-1.66,3.94-4.45,3.94s-4.28-2-4.28-3.94V11.29c0-3.76,2.19-5.91,6.02-5.91h19.92c11.13,0,16.09,4.53,16.09,14.69v2.48c0,5.88-2.8,12.89-16.15,12.89h-1.16l15.24,13.01c.99.81,1.57,2,1.57,3.26,0,2.28-1.89,4-4.39,4Zm-.84-4.27c.53.43.59.44.84.44.39,0,.55-.13.56-.17,0-.02,0-.16-.2-.32l-18.45-15.75c-.67-.53-1.05-1.21-1.05-1.94,0-.84.61-2.08,2.31-2.08h5.57c10.92,0,12.32-4.84,12.32-9.06v-2.48c0-8.02-3.21-10.86-12.27-10.86h-19.92c-1.72,0-2.19.45-2.19,2.08v40.46s.12.11.45.11c.38,0,.56-.12.62-.18V13.43c0-1.8,1.38-3.21,3.15-3.21h17.89c4.81,0,11.2,1.03,11.2,9.96v1.91c0,7.87-7.19,8.78-12.61,8.78h-9.12c-.79,0-.79.25-.79.68,0,.47.25.87.96,1.52l20.71,18.35Z"/>
        </g>
        <g>
          <path class="cls-1" d="m323.13,53.32h-2.7c-12.89,0-18.57-5.8-18.57-18.51v-9.12c0-13,5.96-18.51,18.57-18.51h2.7c12.6,0,18.68,5.85,18.68,18.51v9.12c0,12.72-5.8,18.51-18.68,18.51Zm13.73-27.63c0-9.9-4.78-13.51-13.73-13.51h-2.7c-8.95,0-13.79,3.6-13.79,13.51v9.12c0,9.96,4.84,13.62,13.79,13.62h2.7c8.95,0,13.73-3.66,13.73-13.62v-9.12Z"/>
          <path class="cls-1" d="m323.13,55.24h-2.7c-7.02,0-12.08-1.65-15.47-5.05-3.37-3.38-5.01-8.41-5.01-15.38v-9.12c0-7.05,1.68-12.12,5.13-15.5,3.39-3.32,8.41-4.93,15.35-4.93h2.7c13.67,0,20.6,6.87,20.6,20.43v9.12c0,13.75-6.74,20.43-20.6,20.43Zm-2.7-46.14c-11.83,0-16.66,4.81-16.66,16.6v9.12c0,11.79,4.83,16.6,16.66,16.6h2.7c11.75,0,16.77-4.96,16.77-16.6v-9.12c0-11.48-5.17-16.6-16.77-16.6h-2.7Zm2.7,41.25h-2.7c-10.56,0-15.7-5.08-15.7-15.53v-9.12c0-10.38,5.14-15.42,15.7-15.42h2.7c10.53,0,15.64,5.04,15.64,15.42v9.12c0,10.45-5.12,15.53-15.64,15.53Zm-2.7-36.24c-8.43,0-11.87,3.36-11.87,11.59v9.12c0,8.31,3.44,11.7,11.87,11.7h2.7c8.39,0,11.82-3.39,11.82-11.7v-9.12c0-8.34-3.31-11.59-11.82-11.59h-2.7Z"/>
        </g>
      </g>
    </g>
  </g>
</svg>